<svg width="15" height="15" viewBox="0 0 15 15" fill="none" xmlns="http://www.w3.org/2000/svg">
<path opacity="0.4" d="M14.4262 0.573786C15.1913 1.33883 15.1913 2.57922 14.4262 3.34427L10.2705 7.5L14.4262 11.6557C15.1913 12.4208 15.1913 13.6612 14.4262 14.4262C13.6612 15.1913 12.4208 15.1913 11.6557 14.4262L7.5 10.2705L3.34427 14.4262C2.57922 15.1913 1.33883 15.1913 0.573786 14.4262C-0.191262 13.6612 -0.191262 12.4208 0.573786 11.6557L4.72951 7.5L0.573786 3.34427C-0.191262 2.57922 -0.191262 1.33883 0.573786 0.573786C1.33883 -0.191262 2.57922 -0.191262 3.34427 0.573786L7.5 4.72951L11.6557 0.573786C12.4208 -0.191262 13.6612 -0.191262 14.4262 0.573786Z" fill="#626262"/>
</svg>
